#!OML:ASF F:\VICON\USERDATA\INSTALL\SteveWalk\SteveWalk.ASF
:FULLY-SPECIFIED
:DEGREES
46
root -0.118996 16.2378 -34.6138 16.7453 -3.08034 2.18254
lowerback -14.4329 -0.183752 -6.01536
upperback -5.2819 0.65058 -2.08302
thorax 2.45247 0.351829 1.31505
lowerneck -3.52037 -0.66652 0.218491
upperneck 8.71114 -1.18983 3.18834
head 3.45048 -0.45804 0.957346
rclavicle 5.41378e-015 -1.90833e-014
rhumerus -39.7977 -6.055 -85.6995
rradius 39.6972
rwrist -8.86826
rhand -14.1673 -35.5437
rfingers 7.12502
rthumb 11.9678 -65.1815
lclavicle 5.41378e-015 -1.90833e-014
lhumerus -56.2912 39.3495 43.7986
lradius 11.6535
lwrist -51.7934
lhand -13.15 -16.5516
lfingers 7.12502
lthumb 12.9486 13.0266
rfemur -30.8159 -6.21439 16.2173
rtibia 76.1455
rfoot 0.229288 5.91447
rtoes -16.3127
lfemur -38.8369 0.346525 -27.0658
ltibia 39.6299
lfoot -16.963 -0.79919
ltoes -5.26926
47
root -0.105955 16.2576 -34.4117 16.7797 -3.09079 1.87386
lowerback -14.5565 -0.126081 -5.63929
upperback -5.2038 0.686017 -2.01384
thorax 2.60531 0.362202 1.1837
lowerneck -3.8198 -0.727784 0.282452
upperneck 9.19912 -1.28441 3.06681
head 3.67866 -0.49923 0.90507
rclavicle 7.69825e-015 -2.06736e-014
rhumerus -40.1686 -7.15436 -85.2591
rradius 37.6703
rwrist -8.16231
rhand -15.189 -35.4995
rfingers 7.12502
rthumb 10.9824 -65.1923
lclavicle 7.69825e-015 -2.06736e-014
lhumerus -52.933 37.5533 48.2962
lradius 12.1743
lwrist -48.8223
lhand -12.9633 -16.2977
lfingers 7.12502
lthumb 13.1286 13.2691
rfemur -32.6063 -6.09462 16.7967
rtibia 76.3824
rfoot -1.54113 5.2861
rtoes -16.6608
lfemur -37.8911 0.460366 -26.827
ltibia 39.3874
lfoot -17.4541 -0.773534
ltoes -5.41509
48
root -0.0948945 16.2741 -34.2073 16.7758 -3.11262 1.60965
lowerback -14.6609 -0.0908441 -5.4016
upperback -5.15994 0.704495 -1.88919
thorax 2.70928 0.367617 1.18501
lowerneck -3.94641 -0.914136 0.355015
upperneck 9.77397 -1.53081 2.77189
head 3.90576 -0.623448 0.786116
rclavicle 8.01972e-015 -1.43125e-014
rhumerus -40.76 -8.02581 -84.687
rradius 35.8505
rwrist -7.35714
rhand -15.4643 -35.2872
rfingers 7.12502
rthumb 10.7169 -64.9939
lclavicle 8.01972e-015 -1.43125e-014
lhumerus -49.797 35.5275 52.5433
lradius 12.6336
lwrist -45.6502
lhand -12.4375 -16.0785
lfingers 7.12502
lthumb 13.6354 13.4549
rfemur -34.2088 -5.90848 17.3208
rtibia 76.3426
rfoot -2.81362 4.80677
rtoes -13.9007
lfemur -36.8838 0.542151 -26.6052
ltibia 39.1925
lfoot -18.057 -0.428677
ltoes -5.41928
49
root -0.0880104 16.2973 -33.9997 16.6542 -3.03114 1.36173
lowerback -14.7952 -0.104957 -5.27657
upperback -5.02164 0.677269 -1.7046
thorax 2.92871 0.34754 1.30552
lowerneck -3.75884 -0.86222 0.275483
upperneck 9.66633 -1.44928 2.77033
head 3.83028 -0.58878 0.803158
rclavicle 7.42026e-015 4.77083e-015
rhumerus -41.2661 -9.27407 -83.8209
rradius 33.8972
rwrist -5.8407
rhand -15.1552 -34.9708
rfingers 7.12502
rthumb 11.015 -64.6618
lclavicle 7.42026e-015 4.77083e-015
lhumerus -47.196 34.2584 55.6708
lradius 12.8703
lwrist -43.7077
lhand -12.5771 -16.2055
lfingers 7.12502
lthumb 13.5008 13.3368
rfemur -35.5364 -5.75584 17.8868
rtibia 76.0267
rfoot -4.05667 4.35301
rtoes -13.4443
lfemur -35.7161 0.700018 -26.3749
ltibia 38.9419
lfoot -18.7147 -0.392463
ltoes -4.95099
50
root -0.0763683 16.3148 -33.7902 16.5826 -2.89888 1.07443
lowerback -14.8187 -0.106741 -5.06235
upperback -5.02035 0.638859 -1.52124
thorax 2.94629 0.328365 1.37124
lowerneck -3.42469 -0.9017 0.309334
upperneck 9.68491 -1.48086 2.55942
head 3.76865 -0.614495 0.726439
rclavicle -5.54268e-015 -8.74653e-015
rhumerus -41.9884 -10.3751 -82.9112
rradius 31.9891
rwrist -4.58864
rhand -14.8021 -35.7018
rfingers 7.12502
rthumb 11.3556 -65.3743
lclavicle -5.54268e-015 -8.74653e-015
lhumerus -44.8175 32.4499 58.7941
lradius 13.2141
lwrist -41.484
lhand -13.0978 -16.2429
lfingers 7.12502
lthumb 12.9989 13.3321
rfemur -36.8954 -5.71374 18.5014
rtibia 75.5253
rfoot -5.77778 3.85184
rtoes -20.4156
lfemur -34.6056 0.74946 -26.1041
ltibia 38.6349
lfoot -19.3991 -0.271764
ltoes -5.57911
51
root -0.0656211 16.332 -33.5831 16.4727 -2.39319 0.876924
lowerback -14.5562 -0.215012 -4.87926
upperback -5.0888 0.44515 -1.36901
thorax 2.74587 0.238133 1.39378
lowerneck -3.3299 -1.01015 0.277739
upperneck 9.92775 -1.62223 2.48219
head 3.83716 -0.687084 0.701336
rclavicle 5.79271e-015 3.97569e-015
rhumerus -42.888 -11.6918 -81.8061
rradius 30.0754
rwrist -3.33758
rhand -14.4617 -35.9573
rfingers 7.12502
rthumb 11.6839 -65.6115
lclavicle 5.79271e-015 3.97569e-015
lhumerus -42.7203 30.3482 61.7022
lradius 13.7323
lwrist -39.0424
lhand -13.4299 -16.668
lfingers 7.12502
lthumb 12.6788 12.9271
rfemur -38.1023 -6.01516 19.1249
rtibia 74.8192
rfoot -7.40423 3.14072
rtoes -18.6378
lfemur -33.4349 0.553575 -25.8352
ltibia 38.2793
lfoot -19.9957 -0.413279
ltoes -5.53242
52
root -0.0688157 16.3502 -33.3884 16.1309 -1.43219 0.996254
lowerback -13.9593 -0.523209 -5.187
upperback -5.06417 0.038808 -1.22604
thorax 2.47237 0.0455861 1.64962
lowerneck -3.2625 -1.10188 0.082315
upperneck 10.1618 -1.75329 2.6438
head 3.91352 -0.750451 0.784772
rclavicle -9.15341e-015 2.3059e-014
rhumerus -43.809 -13.0277 -80.5243
rradius 28.1982
rwrist -1.98868
rhand -14.4316 -35.1834
rfingers 7.12502
rthumb 11.7129 -64.836
lclavicle -9.15341e-015 2.3059e-014
lhumerus -40.6738 28.5878 64.2169
lradius 14.1312
lwrist -37.002
lhand -13.5796 -16.7681
lfingers 7.12502
lthumb 12.5344 12.836
rfemur -39.037 -6.66298 19.5875
rtibia 74.0073
rfoot -8.42076 2.35469
rtoes -17.8779
lfemur -32.0457 0.298876 -25.7993
ltibia 37.9104
lfoot -20.4501 -0.998349
ltoes -5.68534
